HIERARCHY
ROOT Hips
{
	OFFSET 0.00000 0.00000 0.00000
	CHANNELS 6 Xposition Yposition Zposition Zrotation Yrotation Xrotation 
	JOINT LHipJoint
	{
		OFFSET 0 0 0
		CHANNELS 3 Zrotation Yrotation Xrotation
		JOINT LeftHip
		{
			OFFSET 1.36306 -1.79463 0.83929
			CHANNELS 3 Zrotation Yrotation Xrotation
			JOINT LeftKnee
			{
				OFFSET 2.44811 -6.72613 0.00000
				CHANNELS 3 Zrotation Yrotation Xrotation
				JOINT LeftAnkle
				{
					OFFSET 2.56220 -7.03959 0.00000
					CHANNELS 3 Zrotation Yrotation Xrotation
					JOINT LeftToe
					{
						OFFSET 0.15764 -0.43311 2.32255
						CHANNELS 3 Zrotation Yrotation Xrotation
						End Site
						{
							OFFSET 0.00000 -0.00000 1.18966
						}
					}
				}
			}
		}
	}
	JOINT RHipJoint
	{
		OFFSET 0 0 0
		CHANNELS 3 Zrotation Yrotation Xrotation
		JOINT RightHip
		{
			OFFSET -1.30552 -1.79463 0.83929
			CHANNELS 3 Zrotation Yrotation Xrotation
			JOINT RightKnee
			{
				OFFSET -2.54253 -6.98555 0.00000
				CHANNELS 3 Zrotation Yrotation Xrotation
				JOINT RightAnkle
				{
					OFFSET -2.56826 -7.05623 0.00000
					CHANNELS 3 Zrotation Yrotation Xrotation
					JOINT RightToe
					{
						OFFSET -0.16473 -0.45259 2.36315
						CHANNELS 3 Zrotation Yrotation Xrotation
						End Site
						{
							OFFSET -0.00000 -0.00000 1.21082
						}
					}
				}
			}
		}
	}
	JOINT lowerback
	{
		OFFSET 0 0 0
		CHANNELS 3 Zrotation Yrotation Xrotation
		JOINT Chest
		{
			OFFSET 0.02827 2.03559 -0.19338
			CHANNELS 3 Zrotation Yrotation Xrotation
			JOINT Chest2
			{
				OFFSET 0.05672 2.04885 -0.04275
				CHANNELS 3 Zrotation Yrotation Xrotation
				JOINT lowerneck
				{
					OFFSET 0 0 0
					CHANNELS 3 Zrotation Yrotation Xrotation
					JOINT Neck
					{
						OFFSET -0.05417 1.74624 0.17202
						CHANNELS 3 Zrotation Yrotation Xrotation
						JOINT Head
						{
							OFFSET 0.10407 1.76136 -0.12397
							CHANNELS 3 Zrotation Yrotation Xrotation
							End Site
							{
								OFFSET 0.03720 1.77044 -0.06241
							}
						}
					}
				}
				JOINT LeftCollar
				{
					OFFSET 0 0 0
					CHANNELS 3 Zrotation Yrotation Xrotation
					JOINT LeftShoulder
					{
						OFFSET 3.36241 1.20089 -0.31121
CHANNELS 3 Zrotation Xrotation Yrotation
						JOINT LeftElbow
						{
OFFSET 0 -4.983000 -0.000000
CHANNELS 3 Zrotation Xrotation Yrotation
							JOINT LeftWrist
							{
OFFSET 0 -3.483560 -0.000000
CHANNELS 3 Zrotation Xrotation Yrotation
								JOINT lhand
								{
									OFFSET 0 0 0
CHANNELS 3 Zrotation Xrotation Yrotation
									JOINT LFingers
									{
OFFSET 0 -0.715260 -0.000000
CHANNELS 3 Zrotation Xrotation Yrotation
										End Site
										{
OFFSET 0 -0.576660 -0.000000
										}
									}
								}
								JOINT LThumb
								{
OFFSET 0 0.000000 0.000000
CHANNELS 3 Zrotation Xrotation Yrotation
									End Site
									{
OFFSET 0 -0.585470 0.585470
									}
								}
							}
						}
					}
				}
				JOINT RightCollar
				{
					OFFSET 0 0 0
					CHANNELS 3 Zrotation Yrotation Xrotation
					JOINT RightShoulder
					{
						OFFSET -3.13660 1.37405 -0.40465
CHANNELS 3 Zrotation Xrotation Yrotation
						JOINT RightElbow
						{
OFFSET 0 -5.241900 -0.000000
CHANNELS 3 Zrotation Xrotation Yrotation
							JOINT RightWrist
							{
OFFSET 0 -3.444170 -0.000000
CHANNELS 3 Zrotation Xrotation Yrotation
								JOINT rhand
								{
									OFFSET 0 0 0
CHANNELS 3 Zrotation Xrotation Yrotation
									JOINT RFingers
									{
OFFSET 0 -0.622530 -0.000000
CHANNELS 3 Zrotation Xrotation Yrotation
										End Site
										{
OFFSET 0 -0.501900 -0.000000
										}
									}
								}
								JOINT RThumb
								{
OFFSET 0 0.000000 0.000000
CHANNELS 3 Zrotation Xrotation Yrotation
									End Site
									{
OFFSET 0 -0.509560 0.509560
									}
								}
							}
						}
					}
				}
			}
		}
	}
}
MOTION
Frames: 7
Frame Time: 0.008333333333333333
-21.025988 17.641476 10.908632 -177.713638 -3.686697 180.737808 0.000000 0.000000 0.000000 -18.698587 3.640418 -4.557469 1.223105 7.014274 19.757772 0.675228 -6.692404 -14.699581 0.006860 0.504001 1.385081 0.000000 0.000000 0.000000 11.412872 4.968895 -17.407758 -5.549121 -13.974905 43.140710 -0.539264 -10.776734 -21.699470 -0.869740 -5.939847 16.611866 -1.189201 1.828315 11.317319 2.213923 2.089911 2.845594 2.688201 0.921083 -3.497610 -4.906385 2.811210 -9.211660 -5.866372 4.623100 24.419891 -0.802315 0.436108 9.247987 0.000000 0.000000 0.000000 38.173004 -2.592932 21.424869 29.971881 -40.865236 11.392672 30.500007 -29.204417 7.437504 0.000000 0.000000 0.000000 -7.125000 0.000000 0.000000 2.680670 21.373899 1.509297 0.000000 0.000000 0.000000 -8.120803 7.261793 -22.266641 -13.727559 -22.343776 -2.723787 -10.927756 7.928917 13.719609 0.000000 0.000000 0.000000 7.125000 0.000000 0.000000 15.022139 43.422097 0.562188
-21.220479 17.612334 10.620379 -178.375736 -12.329784 180.568349 0.000000 0.000000 0.000000 -19.324867 2.715430 -3.453926 1.132877 6.760031 19.006249 0.266720 -13.874012 -12.688640 0.013925 0.738558 2.029789 0.000000 0.000000 0.000000 12.316909 7.409997 -22.507809 -7.974755 -16.100127 52.470907 -0.689050 1.100565 -15.349951 -0.013177 -0.529742 1.456559 -2.374053 1.191017 11.379079 2.559375 1.123484 2.993539 3.861556 0.449882 -3.350013 -5.844153 0.739280 -9.428424 -3.818482 1.469718 25.756685 -0.279783 -0.926704 9.713812 0.000000 0.000000 0.000000 35.383185 -5.673868 20.542378 34.479069 -44.436398 14.447510 29.224804 -30.622154 7.533142 0.000000 0.000000 0.000000 -7.125000 0.000000 0.000000 1.747583 21.365602 0.990089 0.000000 0.000000 0.000000 -3.437545 3.505322 -22.569791 -10.892561 -18.123368 -1.742375 -7.518457 11.010397 15.039154 0.000000 0.000000 0.000000 7.125000 0.000000 0.000000 18.399201 44.329248 0.315817
-21.398969 17.598367 10.212588 -179.404411 -19.573103 180.534935 0.000000 0.000000 0.000000 -19.717817 3.218490 -1.574873 0.959515 6.237004 17.473765 -0.753833 -21.130340 -8.025820 0.159620 2.570623 7.085643 0.000000 0.000000 0.000000 13.565036 8.436358 -27.906691 -9.238387 -16.958685 56.911051 -0.403063 10.988342 -12.788279 -0.335174 3.720331 -10.291236 -3.698170 0.413496 12.767147 2.049868 -0.064955 2.400237 4.272266 -0.065548 -4.633115 -6.015871 -0.683645 -7.930077 -1.701510 -1.162697 25.836218 0.215050 -1.909929 9.475638 0.000000 0.000000 0.000000 31.052677 -4.684028 13.621959 38.596042 -47.215644 17.401756 33.278766 -32.413401 4.869691 0.000000 0.000000 0.000000 -7.125000 0.000000 0.000000 4.919220 24.163374 2.482955 0.000000 0.000000 0.000000 -0.253046 4.485765 -6.238775 -13.455668 -21.950939 -2.621363 -10.526197 6.595528 14.024080 0.000000 0.000000 0.000000 7.125000 0.000000 0.000000 15.422988 43.681155 0.513998
-21.630438 17.563694 9.818452 -180.223905 -23.680518 181.731274 0.000000 0.000000 0.000000 -20.333048 3.765296 -1.077677 0.872030 5.953783 16.650288 -1.396015 -25.120825 -6.513064 0.277612 3.384323 9.351057 0.000000 0.000000 0.000000 15.171195 9.198019 -34.045842 -8.510354 -16.481684 54.380065 -0.074318 14.763040 -11.185590 -0.196801 2.831989 -7.812721 -4.917513 0.389242 11.900587 1.847018 -0.249699 3.093970 4.760005 -0.203641 -3.401601 -7.421318 -2.894875 -6.818927 0.791317 -4.551965 24.283146 1.004746 -3.235915 8.896186 0.000000 0.000000 0.000000 24.922318 -3.814809 6.411250 37.891130 -46.769051 16.886474 30.194598 -23.874776 5.867681 0.000000 0.000000 0.000000 -7.125000 0.000000 0.000000 2.566233 23.199898 1.349858 0.000000 0.000000 0.000000 -2.021543 3.768756 11.163046 -18.837406 -29.215568 -4.951451 -13.676201 2.504517 11.981726 0.000000 0.000000 0.000000 7.125000 0.000000 0.000000 12.110638 41.982367 0.907885
-21.881670 17.537050 9.332759 -180.870461 -26.761379 182.847332 0.000000 0.000000 0.000000 -20.799131 4.395976 0.853833 0.648177 5.150006 14.336940 -1.693338 -26.610743 -5.731186 0.197431 2.857584 7.882720 0.000000 0.000000 0.000000 18.133064 7.511497 -37.525130 -5.987601 -14.413530 44.926531 -0.203266 12.268255 -11.153592 -0.129002 -1.849181 5.101635 -5.034581 0.183476 12.218017 1.143933 -0.594517 3.376008 4.136300 -0.392441 -3.246841 -5.385850 -4.153681 -5.328779 -0.135186 -6.266014 21.813811 0.296443 -3.840357 7.772873 0.000000 0.000000 0.000000 18.357821 -1.915307 -0.383267 33.456683 -43.675624 13.737347 22.962460 -12.839960 8.526970 0.000000 0.000000 0.000000 -7.125000 0.000000 0.000000 -2.825396 20.737143 -1.645696 0.000000 0.000000 0.000000 -5.122958 2.111846 18.481648 -24.577675 -35.768333 -8.042140 -11.839883 0.794709 14.583450 0.000000 0.000000 0.000000 7.125000 0.000000 0.000000 14.425103 44.374034 0.225662
-22.172685 17.505502 8.754831 -181.114935 -28.288350 184.045474 0.000000 0.000000 0.000000 -20.837052 5.741958 3.159923 0.425830 4.187866 11.605934 -1.744573 -26.522778 -5.036785 0.316255 3.613404 9.991719 0.000000 0.000000 0.000000 22.707278 4.325092 -38.144442 -2.730105 -10.241712 29.765989 -0.529703 2.640947 -13.101018 -0.008636 -0.598170 1.643830 -4.533716 0.361190 12.195445 0.291874 -0.315044 3.167446 2.917120 -0.236600 -3.492717 -4.951989 -5.581853 -4.309898 1.364736 -8.765729 22.146027 0.506428 -4.888161 7.806354 0.000000 0.000000 0.000000 13.023287 0.909406 -6.802390 26.799059 -37.984079 9.376240 16.101298 -1.151637 12.506206 0.000000 0.000000 0.000000 -7.125000 0.000000 0.000000 -7.731937 17.053728 -5.172400 0.000000 0.000000 0.000000 -7.618974 1.197051 18.544069 -29.082907 -40.093896 -10.814142 -15.014150 -2.229236 14.484857 0.000000 0.000000 0.000000 7.125000 0.000000 0.000000 11.548863 44.639422 0.103017
-22.480790 17.456562 8.047529 -181.280786 -29.396285 183.819477 0.000000 0.000000 0.000000 -20.200567 8.277645 12.197196 0.000000 0.000000 0.000000 -1.658616 -23.629879 -0.152515 0.512345 4.587647 12.736234 0.000000 0.000000 0.000000 25.629151 2.664452 -36.415435 -1.259760 -7.113933 20.053759 -0.346186 -8.503988 -17.371664 -0.062513 -1.554758 4.277760 -4.662271 0.741380 12.262435 0.380129 0.126691 3.913305 3.015102 -0.074674 -2.786247 -9.847753 -7.664936 -3.786915 6.051416 -12.236634 22.083335 2.493223 -6.497138 8.445096 0.000000 0.000000 0.000000 7.142056 1.936928 -8.923972 19.714254 -30.291099 5.389083 11.350611 7.562798 13.074677 0.000000 0.000000 0.000000 -7.125000 0.000000 0.000000 -10.999185 16.805446 -7.490866 0.000000 0.000000 0.000000 -11.403646 -0.857447 14.292711 -31.703139 -42.308661 -12.540723 -17.546771 -1.229093 13.517263 0.000000 0.000000 0.000000 7.125000 0.000000 0.000000 9.025982 43.943582 0.236547
